<svg width="18" height="15" viewBox="0 0 18 15" fill="none" xmlns="http://www.w3.org/2000/svg">
<path d="M16.4625 7.9375L17.6875 9.17125L11.9738 14.9375L8.9375 11.875L10.1625 10.6413L11.9738 12.4613L16.4625 7.9375ZM6.75 11.875L9.375 14.5H0.625V12.75C0.625 10.8162 3.7575 9.25 7.625 9.25L9.27875 9.34625L6.75 11.875ZM7.625 0.5C8.55326 0.5 9.4435 0.868749 10.0999 1.52513C10.7563 2.1815 11.125 3.07174 11.125 4C11.125 4.92826 10.7563 5.8185 10.0999 6.47487C9.4435 7.13125 8.55326 7.5 7.625 7.5C6.69674 7.5 5.8065 7.13125 5.15013 6.47487C4.49375 5.8185 4.125 4.92826 4.125 4C4.125 3.07174 4.49375 2.1815 5.15013 1.52513C5.8065 0.868749 6.69674 0.5 7.625 0.5Z" fill="#FAF9F8"/>
</svg>
