<svg width="13" height="9" viewBox="0 0 13 9" fill="none" xmlns="http://www.w3.org/2000/svg">
<path d="M8.27273 5.625C6.695 5.625 3.54545 6.37313 3.54545 7.875V9H13V7.875C13 6.37313 9.85045 5.625 8.27273 5.625ZM2.95455 3.375V1.6875H1.77273V3.375H0V4.5H1.77273V6.1875H2.95455V4.5H4.72727V3.375H2.95455ZM8.27273 4.5C8.8996 4.5 9.5008 4.26295 9.94407 3.84099C10.3873 3.41903 10.6364 2.84674 10.6364 2.25C10.6364 1.65326 10.3873 1.08097 9.94407 0.65901C9.5008 0.237053 8.8996 0 8.27273 0C7.64585 0 7.04465 0.237053 6.60138 0.65901C6.15812 1.08097 5.90909 1.65326 5.90909 2.25C5.90909 2.84674 6.15812 3.41903 6.60138 3.84099C7.04465 4.26295 7.64585 4.5 8.27273 4.5Z" fill="#FAF9F8"/>
</svg>
