<svg width="12" height="15" viewBox="0 0 12 15" fill="none" xmlns="http://www.w3.org/2000/svg">
<path d="M6 0.666626C7.5913 0.666626 9.11742 1.29877 10.2426 2.42399C11.3679 3.5492 12 5.07533 12 6.66663C12 9.15063 10.1067 11.7533 6.4 14.5333C6.2846 14.6198 6.14425 14.6666 6 14.6666C5.85575 14.6666 5.7154 14.6198 5.6 14.5333C1.89333 11.7533 0 9.15063 0 6.66663C0 5.07533 0.632141 3.5492 1.75736 2.42399C2.88258 1.29877 4.4087 0.666626 6 0.666626ZM6 4.66663C5.46957 4.66663 4.96086 4.87734 4.58579 5.25241C4.21071 5.62749 4 6.13619 4 6.66663C4 7.19706 4.21071 7.70577 4.58579 8.08084C4.96086 8.45591 5.46957 8.66663 6 8.66663C6.53043 8.66663 7.03914 8.45591 7.41421 8.08084C7.78929 7.70577 8 7.19706 8 6.66663C8 6.13619 7.78929 5.62749 7.41421 5.25241C7.03914 4.87734 6.53043 4.66663 6 4.66663Z" fill="#AEA59B"/>
</svg>
