<svg width="18" height="17" viewBox="0 0 18 17" fill="none" xmlns="http://www.w3.org/2000/svg">
<path d="M13.9565 5.34788H4.04348V3.6957H13.9565V5.34788ZM13.9565 7.82614H4.04348V6.17397H13.9565V7.82614ZM13.9565 10.3044H4.04348V8.65223H13.9565V10.3044ZM17.2609 2.04353C17.2609 1.60535 17.0868 1.18511 16.777 0.875268C16.4671 0.565425 16.0469 0.391357 15.6087 0.391357H2.39131C1.95313 0.391357 1.53289 0.565425 1.22305 0.875268C0.913204 1.18511 0.739136 1.60535 0.739136 2.04353V11.9566C0.739136 12.3948 0.913204 12.815 1.22305 13.1248C1.53289 13.4347 1.95313 13.6087 2.39131 13.6087H13.9565L17.2609 16.9131V2.04353Z" fill="#FAF9F8"/>
</svg>
